<svg xmlns="http://www.w3.org/2000/svg" viewBox="0 0 24 24" role="img" aria-labelledby="whatsapp-title">
  <title id="whatsapp-title">WhatsApp</title>
  <rect width="24" height="24" rx="6" fill="#25d366" />
  <path
    fill="#fff"
    d="M12.04 4.2a7.78 7.78 0 0 0-6.72 11.7L4.3 19.6l3.8-1a7.78 7.78 0 1 0 3.94-14.4Zm0 1.32a6.46 6.46 0 0 1 5.49 9.86 6.47 6.47 0 0 1-8.95 1.91l-.27-.17-2.26.6.6-2.2-.18-.28a6.45 6.45 0 0 1 5.57-9.72Zm-2.7 3.2c-.15 0-.39.05-.59.27-.2.22-.77.75-.77 1.82s.79 2.12.9 2.27c.1.14 1.54 2.45 3.82 3.34 1.89.74 2.28.59 2.69.55.41-.04 1.33-.54 1.51-1.06.19-.52.19-.97.13-1.06-.06-.1-.21-.15-.45-.27-.24-.12-1.39-.69-1.61-.77-.22-.08-.38-.12-.54.12-.16.24-.62.77-.76.93-.14.16-.28.18-.52.06-.24-.12-1.01-.37-1.93-1.19-.71-.63-1.19-1.42-1.34-1.66-.14-.24-.02-.37.1-.49.11-.1.24-.27.36-.4.12-.14.16-.24.24-.4.08-.16.04-.3-.02-.42-.06-.12-.54-1.3-.74-1.78-.19-.46-.39-.4-.54-.41h-.45Z"
  />
</svg>
